<svg width="24" height="24" viewBox="0 0 24 24" fill="none" xmlns="http://www.w3.org/2000/svg">
<g clip-path="url(#clip0_97_406)">
<path d="M18.5868 1.04199H5.4289C3.00662 1.04199 1.04297 3.00564 1.04297 5.42793V18.5858C1.04297 21.008 3.00662 22.9716 5.4289 22.9716H18.5868C21.009 22.9716 22.9726 21.008 22.9726 18.5858V5.42793C22.9726 3.00564 21.009 1.04199 18.5868 1.04199Z" stroke="#0074D4" stroke-width="1.43713" stroke-linecap="round"/>
<path d="M13.5709 14.5966L10.8282 16.4664C10.0764 16.979 9.05088 16.4922 8.97274 15.5856L8.39136 8.83993C8.3117 7.91564 9.2736 7.2599 10.1049 7.67179L16.1716 10.6779C16.9869 11.0819 17.0653 12.2143 16.3135 12.7269L13.5709 14.5966ZM13.5709 14.5966L15.2462 17.0541" stroke="#0074D4" stroke-width="1.43713" stroke-linecap="round"/>
</g>
<defs>
<clipPath id="clip0_97_406">
<rect width="24" height="24" fill="white"/>
</clipPath>
</defs>
</svg>
