<svg width="668" height="668" viewBox="0 0 668 668" fill="none" xmlns="http://www.w3.org/2000/svg">
<g clip-path="url(#clip0_708_2601)">
<path d="M334 667.333C518.095 667.333 667.334 518.095 667.334 334C667.334 149.905 518.095 0.666626 334 0.666626C149.905 0.666626 0.666992 149.905 0.666992 334C0.666992 518.095 149.905 667.333 334 667.333Z" fill="#FF0000"/>
<path fill-rule="evenodd" clip-rule="evenodd" d="M522.341 206.968C528.993 213.62 533.787 221.898 536.243 230.978C550.392 287.928 547.121 377.873 536.518 437.022C534.061 446.102 529.268 454.38 522.617 461.032C515.965 467.683 507.686 472.477 498.606 474.933C465.365 484 331.573 484 331.573 484C331.573 484 197.782 484 164.54 474.933C155.46 472.477 147.182 467.683 140.53 461.032C133.878 454.38 129.085 446.102 126.628 437.022C112.397 380.318 116.298 290.318 126.353 231.253C128.81 222.172 133.603 213.893 140.255 207.242C146.907 200.59 155.185 195.798 164.265 193.34C197.507 184.275 331.298 184 331.298 184C331.298 184 465.09 184 498.332 193.067C507.412 195.523 515.69 200.317 522.341 206.968ZM399.705 334L288.717 398.285V269.713L399.705 334Z" fill="white"/>
</g>
<defs>
<clipPath id="clip0_708_2601">
<rect width="668" height="668" fill="white"/>
</clipPath>
</defs>
</svg>
