<svg width="600" height="154" viewBox="0 0 600 154" fill="white" xmlns="http://www.w3.org/2000/svg">
<path d="M41.1 48.4L82.2 114.5L0 48.4H41.1ZM32.4 15.7L65.5 69H99.2L66.7 15.7H32.4ZM102.7 0H68.8L85.7 28.7L102.7 0Z" fill="white"/>
<path d="M172.1 99.5996C156.2 99.5996 144.6 110 144.6 126.3C144.6 142.6 156.2 153.1 172.1 153.1C188 153.1 199.6 142.7 199.6 126.4C199.6 110.1 188 99.5996 172.1 99.5996ZM172.1 142.8C162.5 142.8 156.3 135.9 156.3 126.4C156.3 116.9 162.6 110 172.1 110C181.6 110 187.9 116.9 187.9 126.4C187.9 135.9 181.6 142.8 172.1 142.8ZM249.7 125.2V125.1C254.9 123.4 258.5 119.6 258.5 113.9C258.5 102.8 248.8 101 239.9 101H220.9V151.9H241.7C250.8 151.9 260.8 148.4 260.8 137.7C260.8 131.1 256.4 126.1 249.7 125.2ZM232.1 110.4H239.7C243.2 110.4 247.2 111.5 247.2 115.7C247.2 119.8 243.6 121.2 240.2 121.2H232.1V110.4ZM242.1 142.3H232V130.7H240.5C244.2 130.7 249.6 131.5 249.6 136.3C249.6 140.8 245.7 142.3 242.1 142.3ZM349.3 141.5H374V151.9H338.1V101H372.7V111.3H349.3V120.8H371.4V131.1H349.3V141.5ZM486.8 136.4C486.8 147.8 477.7 153.2 467.2 153.2C460.7 153.2 454.9 151.3 450.1 146.8L458.1 138C460.4 141 464.1 142.8 467.9 142.8C471.6 142.8 475.7 141.1 475.7 137.5C475.7 128.2 451.8 133.2 451.8 116.2C451.8 105.3 461.2 99.6996 471.2 99.6996C476.9 99.6996 482.5 101.2 486.8 105L479.1 113.4C477.3 111.1 473.7 110 471 110C467.8 110 463.5 111.4 463.5 115.3C463.3 124.5 486.8 118.5 486.8 136.4ZM519.5 141.5H544.2V151.9H508.3V101H542.9V111.3H519.5V120.8H541.6V131.1H519.5V141.5ZM280.6 100.9H320.3V110.8H306.4V151.8H294.6V110.8H280.7L280.6 100.9ZM600 151.8H586.6L571.1 122H577.1C581.2 122 586.5 121.9 586.5 116.3C586.5 111.2 581.9 110.4 577.8 110.4H570.5V110.5H565.3L560.5 100.9H578.9C589.3 100.9 598.1 104.5 598.1 116.4C598.1 123.5 594.3 129.1 587.1 130.3L600 151.8ZM113.5 100.9H124.4V134C124.4 143.2 122 151.9 108.5 151.9C100.6 151.9 94.9 148.2 93.3 140.3L103.3 137.8C103.6 140.2 105.8 142.1 108.2 142.1C113.3 142.1 113.4 136.4 113.4 132.7L113.5 100.9ZM412.8 100.8L439.2 151.8H425.4L420.2 141.5H396.1V131.5H415L399.3 100.8H412.8Z" fill="white"/>
</svg>
