<svg width="600" height="183" viewBox="0 0 600 183" fill="white" xmlns="http://www.w3.org/2000/svg">
<path d="M444 67.6H435.5C434.6 67.6 433.8 68.2 433.5 69C433.1 70.2 432.8 71 432.7 71.5L417.4 117.4C417.3 117.8 416.8 118.9 416 120.7C415.6 121.5 414.4 121.5 414 120.7C413.5 119.6 413.1 118.5 412.7 117.4L397.2 70.1L396.9 69C396.6 68.1 395.8 67.5 394.9 67.5H386.5C385 67.5 384 68.9 384.5 70.3L384.8 71.1L408.4 137L408.5 137.2C408.7 137.7 408.7 138.2 408.5 138.7L408.1 140.1C406.6 144.2 402.7 146.9 398.3 146.9H389.5C388.3 146.9 387.4 147.9 387.4 149V155.8C387.4 157 388.3 157.9 389.5 157.9H398.3C406.9 157.9 414.7 152.9 418.1 145.2L418.5 144.2C418.6 143.9 424.9 126.6 445.5 69.5C445.7 68.6 445 67.6 444 67.6ZM331.8 126.4C333.6 127 335.7 127.4 338.1 127.4C345.2 127.4 350.7 124.3 354.8 120.6C358.1 117.3 359.7 113.3 359.7 108.4V103.1C359.7 102.5 359.2 102 358.6 102L357 102.2L350.4 103L337.3 105C330.2 106.1 326 109 324.6 113.3C324.2 114.3 324 115.4 324 116.6C323.9 121.2 327.2 125.1 331.8 126.4ZM371.4 131V135.1C371.4 136.3 370.4 137.2 369.3 137.2H362.5C361.3 137.2 360.4 136.3 360.4 135.1L360.3 128.3C360.3 127.8 359.7 127.6 359.4 127.9L358.2 129.1C352.7 134.5 345.2 137.2 335.6 137.2C328.7 137.2 323 135.4 318.6 131.7C314.2 128.1 312 123.1 312 116.5C312 113.1 312.6 110.1 313.9 107.6C315.2 105.1 316.8 103.2 318.9 101.8C321 100.4 323.1 99.3 324.9 98.6C326.8 97.9 328.8 97.4 330.9 97.1C341.1 95.7 346.6 94.9 347.6 94.7C348.5 94.6 351.8 94.2 357.6 93.4L358.8 93.2C359.3 93.1 359.7 92.7 359.7 92.2V89.3C359.7 85 358.6 81.6 356.2 79.2C353.8 76.8 349.6 75.6 343.4 75.6C340.1 75.6 337.3 76 335 76.7C332.6 77.5 330.9 78.6 329.7 80.1C328.7 81.3 327.9 82.6 327.4 84C327.2 84.5 327.1 84.9 327 85.4C326.8 86.4 325.9 87.1 324.9 87.1H317.1C315.9 87.1 314.9 86.1 315 84.8V84.4C315.1 83.6 315.2 83 315.3 82.4C315.7 80.6 316.5 78.7 317.7 76.7C318.9 74.7 320.5 73 322.5 71.5C324.5 70 327.2 68.8 330.7 67.8C334.3 66.8 338.4 66.3 343.1 66.3C362.1 66.3 371.4 73.7 371.4 88.8V131ZM527.4 69.1V134.8C527.4 136 528.4 136.9 529.5 136.9H538C539.1 136.9 540.1 135.9 540.1 134.8V69.1C540.1 67.9 539.1 67 538 67H529.5C528.4 67 527.4 67.9 527.4 69.1ZM527.4 48.2V56.5C527.4 57.7 528.4 58.6 529.5 58.6H538C539.2 58.6 540.1 57.7 540.1 56.5V48.2C540.1 47 539.2 46.1 538 46.1H529.5C528.4 46.1 527.4 47 527.4 48.2ZM579.9 78H597.9C599.1 78 600 77 600 75.9V69.1C600 67.9 599 67 597.9 67H579.9C579.3 67 578.8 66.5 578.8 65.9V48.2C578.8 47 577.8 46.1 576.7 46.1H568.2C567 46.1 566.1 47 566.1 48.2V65.9C566.1 66.5 565.6 67 565 67H557.2C556 67 555.1 67.9 555.1 69.1V75.9C555.1 77.1 556.1 78 557.2 78H565C565.6 78 566.1 78.5 566.1 79.1V116.5C566.5 127.9 576 137 587.6 137H597.1C598.3 137 599.2 136 599.2 134.9V128.1C599.2 126.9 598.2 126 597.1 126H587.6C582.7 126 578.8 122.1 578.8 117.3V79.1C578.9 78.5 579.3 78 579.9 78ZM302.5 74.4C302.5 59 290 46.5 274.4 46.1H233.8C232.6 46.1 231.7 47 231.7 48.2V134.8C231.7 136 232.7 136.9 233.8 136.9H242.3C243.5 136.9 244.4 135.9 244.4 134.8V103.7C244.4 103.1 244.8 102.6 245.4 102.6H274.2C289.9 102.3 302.4 89.8 302.5 74.4ZM291.2 74.4C291.2 83.9 283.4 91.6 273.7 91.6H245.5C244.9 91.6 244.5 91.1 244.5 90.5V58.2C244.5 57.6 244.9 57.1 245.5 57.1H273.7C283.4 57.1 291.2 64.9 291.2 74.4ZM471.8 102.4H503.8C505 102.4 505.9 101.4 505.9 100.3V93.5C505.9 92.3 504.9 91.4 503.8 91.4H471.8C471.2 91.4 470.7 90.9 470.7 90.4V58.3C470.7 57.7 471.2 57.2 471.8 57.2H511.1C512.3 57.2 513.2 56.2 513.2 55.1V48.3C513.2 47.1 512.2 46.2 511.1 46.2H460.1C458.9 46.2 458 47.1 458 48.3V134.9C458 136.1 458.9 137 460.1 137H468.6C469.8 137 470.7 136 470.7 134.9V103.5C470.8 102.9 471.2 102.4 471.8 102.4ZM92.6 0C143.7 0 185.1 40.8 185.1 91.1C185.1 141.4 143.7 182.2 92.6 182.2C41.5 182.2 0 141.4 0 91.1C0 40.8 41.4 0 92.6 0ZM75.3 48.7H61.6C60.6 48.7 59.7 49.4 59.5 50.4V50.8V123.8C59.5 132.6 66.8 139.8 75.7 139.8C84.7 139.8 91.9 132.6 91.9 123.8C91.9 123.6 91.9 123.6 91.9 123.5V105.4C91.9 104.9 92.2 104.5 92.7 104.4L93 104.3H114.6C129.7 103.7 141.7 91.4 141.7 76.5C141.7 61.5 129.7 49.3 114.4 48.7H114.2C112.5 48.7 99.5 48.7 75.3 48.7ZM93.9 56.9H113.4C124.4 56.9 133.4 65.7 133.4 76.5C133.4 87.1 124.9 95.7 114.2 96.1H93C92.4 96.1 91.9 95.6 92 95V81.7C92 81.1 92.4 80.6 93 80.6H113.4C115.7 80.6 117.5 78.8 117.6 76.5C117.6 74.2 115.7 72.4 113.4 72.4H85.7C84.5 72.4 83.6 73.4 83.6 74.5V123.3C83.8 127.8 80.2 131.6 75.7 131.6C71.4 131.6 67.8 128.2 67.8 123.8C67.8 123.6 67.8 123.5 67.8 123.4V57.9C67.8 57.3 68.3 56.9 68.8 56.9H93.9Z" fill="white"/>
</svg>
