<svg width="600" height="326" viewBox="0 0 600 326" fill="white" xmlns="http://www.w3.org/2000/svg">
<path d="M95.8 139.7V138.1H73.9C63.6 138.1 56 139.1 51 141.2C46.2 143.1 43.8 147.3 43.8 153.9C43.8 163.7 50.7 168.6 64.4 168.6C75.9 168.6 84 166.2 88.6 161.4C93.4 156.4 95.8 149.2 95.8 139.7ZM55.9 197.1C39.8 197.1 27.8 193.1 20.1 185.2C12.4 177.1 8.5 166.7 8.5 153.9C8.5 138.5 13.5 127.5 23.4 120.8C33.4 113.9 48.6 110.4 69 110.4H95.8V104.7C95.8 91.9 87.7 85.6 71.6 85.6C57.2 85.6 49.2 91.1 47.6 102.2H11.6C12.8 88.9 18.3 77.8 28.1 68.8C37.9 59.8 52.7 55.3 72.4 55.3C92 55.3 106.8 59.7 116.7 68.5C126.6 77.4 131.6 89.8 131.6 105.8V194H99.1V179C91.4 191.1 77 197.1 55.9 197.1ZM213.9 162.5V193.8C210.3 194.3 206.5 194.6 202.6 194.6C188.3 194.6 178.2 191.6 172.2 185.5C166.2 179.3 163.2 169.4 163.2 155.7V0H199.8V153.2C199.8 156.5 200.4 158.9 201.6 160.4C202.8 162 205.3 162.7 209.1 162.7H211.9C213 162.6 213.7 162.5 213.9 162.5ZM358.4 116.9V194H321.8V113.5C321.8 95.7 314.6 86.8 300.2 86.8C291.8 86.8 285.3 89.4 280.6 94.6C276.1 99.8 273.9 106.9 273.9 116.1V194H237.3V58.5H271.1V75C278.1 61.9 291.1 55.3 310 55.3C327.9 55.3 340.9 61.7 349.2 74.4C360.7 61.6 375.7 55.3 394 55.3C409.8 55.3 421.9 60.2 430.3 70C438.7 79.8 442.9 92.9 442.9 109.3V194H406.3V113.5C406.3 95.7 399.1 86.8 384.7 86.8C376.1 86.8 369.6 89.5 365.1 94.8C360.7 100.1 358.4 107.4 358.4 116.9ZM555.5 139.7V138.1H533.6C523.3 138.1 515.7 139.1 510.7 141.2C505.9 143.1 503.5 147.3 503.5 153.9C503.5 163.7 510.4 168.6 524.1 168.6C535.6 168.6 543.7 166.2 548.3 161.4C553.1 156.4 555.5 149.2 555.5 139.7ZM515.6 197.1C499.5 197.1 487.5 193.1 479.8 185.2C472.1 177.1 468.2 166.7 468.2 153.9C468.2 138.5 473.2 127.5 483.1 120.8C493.1 113.9 508.3 110.4 528.7 110.4H555.5V104.7C555.5 91.9 547.4 85.6 531.3 85.6C516.9 85.6 508.9 91.1 507.3 102.2H471.2C472.4 88.9 477.9 77.8 487.7 68.8C497.5 59.8 512.3 55.3 532 55.3C551.6 55.3 566.4 59.7 576.3 68.5C586.3 77.3 591.2 89.7 591.2 105.8V194H558.7V179C551.1 191.1 536.7 197.1 515.6 197.1Z" fill="white"/>
<path d="M600 282.9H0V325.8H600V282.9Z" fill="white"/>
</svg>
