<svg width="800" height="800" viewBox="0 0 800 800" fill="none" xmlns="http://www.w3.org/2000/svg">
<path d="M66.6666 325C53 325 41.6666 313.667 41.6666 300V216.667C41.6666 120 120.333 41.667 216.667 41.667H300C313.667 41.667 325 53.0003 325 66.667C325 80.3337 313.667 91.667 300 91.667H216.667C147.667 91.667 91.6666 147.667 91.6666 216.667V300C91.6666 313.667 80.3333 325 66.6666 325Z" fill="#A1A1A1"/>
<path d="M733.333 325C719.667 325 708.333 313.667 708.333 300V216.667C708.333 147.667 652.333 91.667 583.333 91.667H500C486.333 91.667 475 80.3337 475 66.667C475 53.0003 486.333 41.667 500 41.667H583.333C679.667 41.667 758.333 120 758.333 216.667V300C758.333 313.667 747 325 733.333 325Z" fill="#A1A1A1"/>
<path d="M583.333 758.333H533.333C519.667 758.333 508.333 747 508.333 733.333C508.333 719.666 519.667 708.333 533.333 708.333H583.333C652.333 708.333 708.333 652.333 708.333 583.333V533.333C708.333 519.666 719.667 508.333 733.333 508.333C747 508.333 758.333 519.666 758.333 533.333V583.333C758.333 680 679.667 758.333 583.333 758.333Z" fill="#A1A1A1"/>
<path d="M300 758.333H216.667C120.333 758.333 41.6666 680 41.6666 583.333V500C41.6666 486.333 53 475 66.6666 475C80.3333 475 91.6666 486.333 91.6666 500V583.333C91.6666 652.333 147.667 708.333 216.667 708.333H300C313.667 708.333 325 719.667 325 733.333C325 747 313.667 758.333 300 758.333Z" fill="#A1A1A1"/>
<path d="M283.37 379.37C336.39 379.37 379.37 336.39 379.37 283.37C379.37 230.351 336.39 187.37 283.37 187.37C230.35 187.37 187.37 230.351 187.37 283.37C187.37 336.39 230.35 379.37 283.37 379.37Z" fill="#A1A1A1"/>
<path d="M250.036 612.703C284.646 612.703 312.703 584.647 312.703 550.037C312.703 515.427 284.646 487.37 250.036 487.37C215.427 487.37 187.37 515.427 187.37 550.037C187.37 584.647 215.427 612.703 250.036 612.703Z" fill="#A1A1A1"/>
<path d="M550.037 312.703C584.647 312.703 612.703 284.647 612.703 250.037C612.703 215.427 584.647 187.37 550.037 187.37C515.427 187.37 487.37 215.427 487.37 250.037C487.37 284.647 515.427 312.703 550.037 312.703Z" fill="#A1A1A1"/>
<path d="M516.703 612.703C569.723 612.703 612.703 569.723 612.703 516.703C612.703 463.683 569.723 420.703 516.703 420.703C463.683 420.703 420.703 463.683 420.703 516.703C420.703 569.723 463.683 612.703 516.703 612.703Z" fill="#A1A1A1"/>
</svg>
