<svg width="800" height="800" viewBox="0 0 800 800" fill="none" xmlns="http://www.w3.org/2000/svg">
<path d="M733.337 283.334C733.337 392 653.337 481.667 549.337 497.334V495.334C539.003 366 434.003 261 303.669 250.667H302.669C318.336 146.667 408.003 66.667 516.67 66.667C636.337 66.667 733.337 163.667 733.337 283.334Z" fill="#4176D6"/>
<path d="M499.333 499.333C491 393.667 406.333 309 300.667 300.667C295 300.333 289 300 283.333 300C163.667 300 66.6667 397 66.6667 516.667C66.6667 636.333 163.667 733.333 283.333 733.333C403 733.333 500 636.333 500 516.667C500 511 499.667 505 499.333 499.333ZM312.667 546L283.333 600L254 546L200 516.667L254 487.333L283.333 433.333L312.667 487.333L366.667 516.667L312.667 546Z" fill="#4176D6"/>
</svg>
