<svg width="800" height="800" viewBox="0 0 800 800" fill="none" xmlns="http://www.w3.org/2000/svg">
<path d="M683.333 533.333V616.667C683.333 681 631 733.333 566.667 733.333H233.333C169 733.333 116.667 681 116.667 616.667V595C116.667 542.667 159.333 500 211.667 500H650C668.333 500 683.333 515 683.333 533.333Z" fill="white"/>
<path d="M516.667 66.667H283.333C150 66.667 116.667 100 116.667 233.334V486C142 463.667 175.333 450 211.667 450H650C668.333 450 683.333 435 683.333 416.667V233.334C683.333 100 650 66.667 516.667 66.667ZM433.333 358.334H266.667C253 358.334 241.667 347 241.667 333.334C241.667 319.667 253 308.334 266.667 308.334H433.333C447 308.334 458.333 319.667 458.333 333.334C458.333 347 447 358.334 433.333 358.334ZM533.333 241.667H266.667C253 241.667 241.667 230.334 241.667 216.667C241.667 203 253 191.667 266.667 191.667H533.333C547 191.667 558.333 203 558.333 216.667C558.333 230.334 547 241.667 533.333 241.667Z" fill="white"/>
</svg>
