<svg width="16" height="17" viewBox="0 0 16 17" fill="none" xmlns="http://www.w3.org/2000/svg">
<g clip-path="url(#clip0_97_384)">
<path d="M16 14.7222C16 15.1937 15.8127 15.6459 15.4793 15.9793C15.1459 16.3127 14.6937 16.5 14.2222 16.5H1.77778C1.30628 16.5 0.854097 16.3127 0.520699 15.9793C0.187301 15.6459 0 15.1937 0 14.7222V2.27778C0 1.80628 0.187301 1.3541 0.520699 1.0207C0.854097 0.687301 1.30628 0.5 1.77778 0.5L14.2222 0.5C14.6937 0.5 15.1459 0.687301 15.4793 1.0207C15.8127 1.3541 16 1.80628 16 2.27778V14.7222Z" fill="#9B7FD7"/>
<path d="M8.33741 5C9.04589 5 10.4234 5.2328 10.4234 6.08669C10.4234 6.43588 10.1809 6.73658 9.82196 6.73658C9.42391 6.73658 9.1526 6.39709 8.33741 6.39709C7.1345 6.39709 6.51334 7.41588 6.51334 8.59926C6.51334 9.75353 7.14389 10.7432 8.33741 10.7432C9.1526 10.7432 9.48211 10.3358 9.88016 10.3358C10.317 10.3358 10.5207 10.7723 10.5207 10.9951C10.5207 11.9266 9.05559 12.14 8.33772 12.14C6.36814 12.14 5 10.578 5 8.56984C4.99969 6.55228 6.35812 5 8.33741 5Z" fill="white"/>
</g>
<defs>
<clipPath id="clip0_97_384">
<rect y="0.5" width="16" height="16" rx="6" fill="white"/>
</clipPath>
</defs>
</svg>
