<svg width="800" height="800" viewBox="0 0 800 800" fill="none" xmlns="http://www.w3.org/2000/svg">
<path d="M310.665 442.713H413.663V682.713C413.663 718.047 457.663 734.713 480.997 708.047L733.33 421.38C755.33 396.38 737.663 357.38 704.33 357.38H601.33V117.381C601.33 82.0478 557.33 65.3811 533.997 92.0478L281.665 378.713C259.998 403.713 277.665 442.713 310.665 442.713Z" fill="white"/>
<path d="M283.333 158.333H50C36.3333 158.333 25 147 25 133.333C25 119.666 36.3333 108.333 50 108.333H283.333C297 108.333 308.333 119.666 308.333 133.333C308.333 147 297 158.333 283.333 158.333Z" fill="white"/>
<path d="M250 691.667H50C36.3333 691.667 25 680.334 25 666.667C25 653 36.3333 641.667 50 641.667H250C263.667 641.667 275 653 275 666.667C275 680.334 263.667 691.667 250 691.667Z" fill="white"/>
<path d="M150 425H50C36.3333 425 25 413.667 25 400C25 386.333 36.3333 375 50 375H150C163.667 375 175 386.333 175 400C175 413.667 163.667 425 150 425Z" fill="white"/>
</svg>
