<svg width="800" height="800" viewBox="0 0 800 800" fill="none" xmlns="http://www.w3.org/2000/svg">
<path d="M641.333 185.953H628L515.333 73.2861C506.333 64.2861 491.667 64.2861 482.333 73.2861C473.333 82.2861 473.333 96.9528 482.333 106.286L562 185.953H238L317.667 106.286C326.667 97.2861 326.667 82.6195 317.667 73.2861C308.667 64.2861 294 64.2861 284.667 73.2861L172.333 185.953H159C129 185.953 66.6667 185.953 66.6667 271.286C66.6667 303.619 73.3334 324.953 87.3334 338.953C95.3334 347.286 105 351.62 115.333 353.953C125 356.286 135.333 356.62 145.333 356.62H654.667C665 356.62 674.667 355.953 684 353.953C712 347.286 733.333 327.286 733.333 271.286C733.333 185.953 671 185.953 641.333 185.953Z" fill="white"/>
<path d="M635.02 400H162.355C141.688 400 126.021 418.333 129.355 438.667L157.355 610C166.688 667.333 191.688 733.333 302.688 733.333H489.687C602.02 733.333 622.02 677 634.02 614L667.687 439.667C671.687 419 656.02 400 635.02 400ZM400.02 650C322.021 650 258.355 586.333 258.355 508.333C258.355 494.667 269.688 483.333 283.355 483.333C297.021 483.333 308.355 494.667 308.355 508.333C308.355 559 349.353 600 400.02 600C450.687 600 491.687 559 491.687 508.333C491.687 494.667 503.02 483.333 516.687 483.333C530.353 483.333 541.687 494.667 541.687 508.333C541.687 586.333 478.02 650 400.02 650Z" fill="white"/>
</svg>
