<svg width="16" height="17" viewBox="0 0 16 17" fill="none" xmlns="http://www.w3.org/2000/svg">
<path d="M3.41666 10.1005L2.54794 13.1416C2.5322 13.1951 2.52276 13.257 2.52276 13.321C2.52276 13.6835 2.816 13.9772 3.17849 13.9778C3.24459 13.9778 3.30859 13.9678 3.36892 13.95L3.3642 13.951L6.31345 13.0823C6.42151 13.0492 6.51436 12.9931 6.58991 12.9191L15.8059 3.79443C15.926 3.67534 16.0005 3.51062 16.0005 3.32807C16.0005 3.14708 15.9271 2.98341 15.8091 2.86485L13.6367 0.692C13.5176 0.573443 13.354 0.5 13.1725 0.5C12.991 0.5 12.8273 0.573443 12.7082 0.692L3.58348 9.81672C3.50689 9.89331 3.44918 9.98931 3.41771 10.0958L3.41666 10.1005ZM13.1719 2.08321L14.4147 3.32597L13.1719 4.55666L11.9287 3.32649L13.1719 2.08321ZM4.63108 10.6241L11.0017 4.25344L12.2403 5.47889L5.78413 11.8705L4.1364 12.3552L4.63108 10.6241ZM15.3443 6.79508C14.9823 6.79508 14.6885 7.08885 14.6885 7.45082V15.1885H1.31148V1.81148H9.04918C9.41115 1.81148 9.70492 1.5177 9.70492 1.15574C9.70492 0.79377 9.41115 0.5 9.04918 0.5H0.655738C0.293771 0.5 0 0.79377 0 1.15574V15.8443C0 16.2062 0.293771 16.5 0.655738 16.5H15.3443C15.7062 16.4995 15.9995 16.2062 16 15.8443V7.45082C16 7.08885 15.7062 6.79508 15.3443 6.79508Z" fill="white"/>
</svg>
