<svg width="800" height="800" viewBox="0 0 800 800" fill="none" xmlns="http://www.w3.org/2000/svg">
<path d="M66.6667 382V548.667C66.6667 625 128.333 686.667 204.667 686.667H595C671.333 686.667 733.333 624.667 733.333 548.334V382C733.333 359.667 715.333 341.667 693 341.667H107C84.6667 341.667 66.6667 359.667 66.6667 382ZM266.667 575H200C186.333 575 175 563.667 175 550C175 536.334 186.333 525 200 525H266.667C280.333 525 291.667 536.334 291.667 550C291.667 563.667 280.333 575 266.667 575ZM483.333 575H350C336.333 575 325 563.667 325 550C325 536.334 336.333 525 350 525H483.333C497 525 508.333 536.334 508.333 550C508.333 563.667 497 575 483.333 575Z" fill="#091747"/>
<path d="M450 153.615V251.281C450 273.615 432 291.615 409.667 291.615H107C84.3334 291.615 66.6667 272.948 66.6667 250.615C67.0001 212.948 82.0001 178.615 107 153.615C132 128.615 166.667 113.281 204.667 113.281H409.667C432 113.281 450 131.281 450 153.615Z" fill="#091747"/>
<path d="M665.667 66.667H567.667C525.333 66.667 500 92.0003 500 134.334V232.334C500 274.667 525.333 300 567.667 300H665.667C708 300 733.333 274.667 733.333 232.334V134.334C733.333 92.0003 708 66.667 665.667 66.667ZM687.667 148.334L608.667 240.667C605.667 244.334 601 246.667 596.333 246.667C596 246.667 596 246.667 595.667 246.667C591 246.667 586.667 245 583.333 241.667L546.667 205.667C540 199 540 188 546.667 181.334C553.333 174.667 564.333 174.334 571 181.334L594.333 204.334L661 126.334C667.333 119 678 118.334 685.333 124.334C693 130.334 693.667 141.334 687.667 148.334Z" fill="#091747"/>
</svg>
