<svg width="800" height="800" viewBox="0 0 800 800" fill="none" xmlns="http://www.w3.org/2000/svg">
<path d="M400 66.667C216.333 66.667 66.6665 216.334 66.6665 400C66.6665 583.667 216.333 733.334 400 733.334C583.666 733.334 733.333 583.667 733.333 400C733.333 216.334 583.666 66.667 400 66.667ZM533.333 425H425V533.334C425 547 413.666 558.334 400 558.334C386.333 558.334 375 547 375 533.334V425H266.666C253 425 241.666 413.667 241.666 400C241.666 386.334 253 375 266.666 375H375V266.667C375 253 386.333 241.667 400 241.667C413.666 241.667 425 253 425 266.667V375H533.333C547 375 558.333 386.334 558.333 400C558.333 413.667 547 425 533.333 425Z" fill="white"/>
</svg>
