<svg width="470" height="667" viewBox="0 0 470 667" fill="none" xmlns="http://www.w3.org/2000/svg">
<path d="M234.635 0C147.302 0 76.302 71 76.302 158.333C76.302 244 143.302 313.333 230.635 316.333C233.302 316 235.969 316 237.969 316.333C238.635 316.333 238.969 316.333 239.635 316.333C239.969 316.333 239.969 316.333 240.302 316.333C325.635 313.333 392.635 244 392.969 158.333C392.969 71 321.969 0 234.635 0Z" fill="#091747"/>
<path d="M403.999 405.353C310.999 343.353 159.333 343.353 65.6667 405.353C23.3333 433.353 0 471.686 0 512.686C0 553.686 23.3333 591.686 65.3333 619.686C112 651.019 173.332 666.686 234.665 666.686C295.999 666.686 357.332 651.019 403.999 619.686C445.999 591.353 469.332 553.353 469.332 512.019C468.999 471.353 445.999 433.019 403.999 405.353ZM295.665 535.686H173.999C161.333 535.686 151 525.353 151 512.686C151 500.019 161.333 489.686 173.999 489.686H295.665C308.332 489.686 318.665 500.019 318.665 512.686C318.665 525.353 308.332 535.686 295.665 535.686Z" fill="#091747"/>
<ellipse cx="234.635" cy="511.833" rx="138" ry="56.5" fill="#091747"/>
</svg>
