<svg width="800" height="800" viewBox="0 0 800 800" fill="none" xmlns="http://www.w3.org/2000/svg">
<path d="M539.667 66.667H260.333C139 66.667 66.6667 139 66.6667 260.334V539.334C66.6667 661 139 733.334 260.333 733.334H539.333C660.667 733.334 733 661 733 539.667V260.334C733.333 139 661 66.667 539.667 66.667ZM215.667 309.334C206 299.667 206 283.667 215.667 274C258.667 231 329 231 372.333 274C382 283.667 382 299.667 372.333 309.334C367.333 314.334 361 316.667 354.667 316.667C348.333 316.667 342 314.334 337 309.334C313.333 285.667 274.667 285.667 251 309.334C241.333 319.334 225.333 319.334 215.667 309.334ZM520 602.667H280C256.667 602.667 237.667 583.667 237.667 560C237.667 470.334 310.667 397.334 400.333 397.334C490 397.334 563 470.334 563 560C562.667 583.334 543.333 602.667 520 602.667ZM584.333 309.334C574.667 319 558.667 319 549 309.334C525.333 285.667 486.667 285.667 463 309.334C458 314.334 451.667 316.667 445.333 316.667C439 316.667 432.667 314.334 427.667 309.334C418 299.667 418 283.667 427.667 274C470.667 231 541 231 584.333 274C594 284 594 299.667 584.333 309.334Z" fill="#091747"/>
</svg>
