<svg width="800" height="800" viewBox="0 0 800 800" fill="none" xmlns="http://www.w3.org/2000/svg">
<g filter="url(#filter0_d_748_2309)">
<path d="M300 66.667C212.667 66.667 141.667 137.667 141.667 225C141.667 310.667 208.667 380 296 383C298.667 382.667 301.333 382.667 303.333 383C304 383 304.333 383 305 383C305.333 383 305.333 383 305.667 383C391 380 458 310.667 458.333 225C458.333 137.667 387.333 66.667 300 66.667Z" fill="#091747"/>
<path d="M469.363 471.63C376.363 409.63 224.698 409.63 131.031 471.63C88.6981 499.963 65.3647 538.297 65.3647 579.297C65.3647 620.297 88.6981 658.297 130.698 686.297C177.365 717.63 238.698 733.297 300.031 733.297C361.363 733.297 422.697 717.63 469.363 686.297C511.363 657.963 534.697 619.963 534.697 578.63C534.363 537.63 511.363 499.63 469.363 471.63Z" fill="#091747"/>
<path d="M666.314 244.605C671.647 309.272 625.647 365.937 561.98 373.603C561.647 373.603 561.647 373.603 561.313 373.603H560.313C558.313 373.603 556.313 373.603 554.647 374.27C522.313 375.937 492.647 365.603 470.313 346.603C504.647 315.938 524.313 269.938 520.313 219.938C517.98 192.938 508.647 168.272 494.647 147.272C507.313 140.938 521.98 136.938 536.98 135.605C602.313 129.938 660.647 178.605 666.314 244.605Z" fill="#091747"/>
<path d="M732.944 553.014C730.277 585.347 709.61 613.347 674.944 632.347C641.61 650.68 599.61 659.347 557.944 658.347C581.944 636.68 595.943 609.68 598.61 581.014C601.943 539.68 582.277 500.014 542.943 468.347C520.61 450.68 494.61 436.68 466.277 426.347C539.944 405.014 632.61 419.347 689.61 465.347C720.277 490.014 735.944 521.014 732.944 553.014Z" fill="#091747"/>
</g>
<defs>
<filter id="filter0_d_748_2309" x="-4" y="0" width="808" height="808" filterUnits="userSpaceOnUse" color-interpolation-filters="sRGB">
<feFlood flood-opacity="0" result="BackgroundImageFix"/>
<feColorMatrix in="SourceAlpha" type="matrix" values="0 0 0 0 0 0 0 0 0 0 0 0 0 0 0 0 0 0 127 0" result="hardAlpha"/>
<feOffset dy="4"/>
<feGaussianBlur stdDeviation="2"/>
<feComposite in2="hardAlpha" operator="out"/>
<feColorMatrix type="matrix" values="0 0 0 0 0 0 0 0 0 0 0 0 0 0 0 0 0 0 0.25 0"/>
<feBlend mode="normal" in2="BackgroundImageFix" result="effect1_dropShadow_748_2309"/>
<feBlend mode="normal" in="SourceGraphic" in2="effect1_dropShadow_748_2309" result="shape"/>
</filter>
</defs>
</svg>
