<svg width="800" height="800" viewBox="0 0 800 800" fill="none" xmlns="http://www.w3.org/2000/svg">
<path d="M702.324 174.334C648.657 169 594.99 165 540.99 162V161.667L533.657 118.334C528.657 87.667 521.324 41.667 443.324 41.667H355.99C278.323 41.667 270.989 85.667 265.656 118L258.656 160.667C227.656 162.667 196.656 164.667 165.656 167.667L97.656 174.334C83.656 175.667 73.656 188 74.9893 201.667C76.3226 215.334 88.3226 225.334 102.323 224L170.323 217.334C344.99 200 520.99 206.667 697.657 224.334C698.657 224.334 699.324 224.334 700.324 224.334C712.99 224.334 723.99 214.667 725.324 201.667C726.324 188 716.324 175.667 702.324 174.334Z" fill="#091747"/>
<path d="M640.99 271.333C632.99 263 621.99 258.333 610.656 258.333H189.325C177.991 258.333 166.658 263 158.991 271.333C151.325 279.666 146.991 291 147.658 302.666L168.325 644.666C171.991 695.333 176.658 758.666 292.991 758.666H506.99C623.323 758.666 627.993 695.666 631.656 644.666L652.323 303C652.99 291 648.656 279.666 640.99 271.333ZM455.323 591.666H344.323C330.658 591.666 319.325 580.333 319.325 566.666C319.325 553 330.658 541.666 344.323 541.666H455.323C468.99 541.666 480.323 553 480.323 566.666C480.323 580.333 468.99 591.666 455.323 591.666ZM483.323 458.333H316.658C302.991 458.333 291.658 447 291.658 433.333C291.658 419.666 302.991 408.333 316.658 408.333H483.323C496.99 408.333 508.323 419.666 508.323 433.333C508.323 447 496.99 458.333 483.323 458.333Z" fill="#091747"/>
</svg>
