<svg width="751" height="188" viewBox="0 0 751 188" fill="none" xmlns="http://www.w3.org/2000/svg">
<path fill-rule="evenodd" clip-rule="evenodd" d="M117.703 22.9977C133.037 33.0715 137.308 53.6174 127.241 68.8882L70.2096 155.4C60.1425 170.671 39.5502 174.884 24.2153 164.81C8.88034 154.736 4.60989 134.19 14.6769 118.919L71.7082 32.4079C81.7753 17.137 102.368 12.924 117.703 22.9977Z" fill="url(#paint0_linear_725_2267)"/>
<path fill-rule="evenodd" clip-rule="evenodd" d="M142.703 22.9977C158.037 33.0715 162.308 53.6174 152.241 68.8882L95.2096 155.4C85.1425 170.671 64.5502 174.884 49.2153 164.81C33.8803 154.736 29.6099 134.19 39.6769 118.919L96.7082 32.4079C106.775 17.137 127.368 12.924 142.703 22.9977Z" fill="url(#paint1_linear_725_2267)" fill-opacity="0.3"/>
<path fill-rule="evenodd" clip-rule="evenodd" d="M167.703 22.9977C183.037 33.0715 187.308 53.6174 177.241 68.8882L120.21 155.4C110.143 170.671 89.5502 174.884 74.2153 164.81C58.8803 154.736 54.6099 134.19 64.6769 118.919L121.708 32.4079C131.775 17.137 152.368 12.924 167.703 22.9977Z" fill="url(#paint2_linear_725_2267)" fill-opacity="0.3"/>
<path d="M244.2 60.608C251.304 60.608 257.512 62.016 262.824 64.832C268.136 67.648 272.232 71.616 275.112 76.736C278.056 81.792 279.528 87.648 279.528 94.304C279.528 100.896 278.056 106.752 275.112 111.872C272.232 116.992 268.104 120.96 262.728 123.776C257.416 126.592 251.24 128 244.2 128H218.952V60.608H244.2ZM243.144 113.792C249.352 113.792 254.184 112.096 257.64 108.704C261.096 105.312 262.824 100.512 262.824 94.304C262.824 88.096 261.096 83.264 257.64 79.808C254.184 76.352 249.352 74.624 243.144 74.624H235.368V113.792H243.144ZM302.238 83.36C304.158 80.416 306.558 78.112 309.438 76.448C312.318 74.72 315.518 73.856 319.038 73.856V91.232H314.526C310.43 91.232 307.358 92.128 305.31 93.92C303.262 95.648 302.238 98.72 302.238 103.136V128H285.822V74.432H302.238V83.36ZM374.5 100.352C374.5 101.888 374.404 103.488 374.213 105.152H337.06C337.316 108.48 338.372 111.04 340.228 112.832C342.148 114.56 344.484 115.424 347.236 115.424C351.333 115.424 354.181 113.696 355.78 110.24H373.253C372.357 113.76 370.725 116.928 368.357 119.744C366.053 122.56 363.141 124.768 359.621 126.368C356.101 127.968 352.164 128.768 347.812 128.768C342.564 128.768 337.892 127.648 333.796 125.408C329.7 123.168 326.5 119.968 324.196 115.808C321.892 111.648 320.74 106.784 320.74 101.216C320.74 95.648 321.86 90.784 324.1 86.624C326.404 82.464 329.604 79.264 333.7 77.024C337.796 74.784 342.5 73.664 347.812 73.664C352.997 73.664 357.605 74.752 361.637 76.928C365.668 79.104 368.805 82.208 371.045 86.24C373.348 90.272 374.5 94.976 374.5 100.352ZM357.7 96.032C357.7 93.216 356.74 90.976 354.82 89.312C352.9 87.648 350.5 86.816 347.621 86.816C344.868 86.816 342.532 87.616 340.612 89.216C338.756 90.816 337.604 93.088 337.156 96.032H357.7ZM377.017 101.12C377.017 95.616 378.041 90.784 380.089 86.624C382.201 82.464 385.049 79.264 388.633 77.024C392.217 74.784 396.217 73.664 400.633 73.664C404.409 73.664 407.705 74.432 410.521 75.968C413.401 77.504 415.609 79.52 417.145 82.016V74.432H433.561V128H417.145V120.416C415.545 122.912 413.305 124.928 410.425 126.464C407.609 128 404.313 128.768 400.537 128.768C396.185 128.768 392.217 127.648 388.633 125.408C385.049 123.104 382.201 119.872 380.089 115.712C378.041 111.488 377.017 106.624 377.017 101.12ZM417.145 101.216C417.145 97.12 415.993 93.888 413.689 91.52C411.449 89.152 408.697 87.968 405.433 87.968C402.169 87.968 399.385 89.152 397.081 91.52C394.841 93.824 393.721 97.024 393.721 101.12C393.721 105.216 394.841 108.48 397.081 110.912C399.385 113.28 402.169 114.464 405.433 114.464C408.697 114.464 411.449 113.28 413.689 110.912C415.993 108.544 417.145 105.312 417.145 101.216ZM510.909 73.856C517.565 73.856 522.845 75.872 526.749 79.904C530.717 83.936 532.701 89.536 532.701 96.704V128H516.381V98.912C516.381 95.456 515.453 92.8 513.597 90.944C511.805 89.024 509.309 88.064 506.109 88.064C502.909 88.064 500.381 89.024 498.525 90.944C496.733 92.8 495.837 95.456 495.837 98.912V128H479.517V98.912C479.517 95.456 478.589 92.8 476.733 90.944C474.941 89.024 472.445 88.064 469.245 88.064C466.045 88.064 463.517 89.024 461.661 90.944C459.869 92.8 458.973 95.456 458.973 98.912V128H442.557V74.432H458.973V81.152C460.637 78.912 462.813 77.152 465.501 75.872C468.189 74.528 471.229 73.856 474.621 73.856C478.653 73.856 482.237 74.72 485.373 76.448C488.573 78.176 491.069 80.64 492.861 83.84C494.717 80.896 497.245 78.496 500.445 76.64C503.645 74.784 507.133 73.856 510.909 73.856ZM571.158 114.08V128H562.806C556.854 128 552.214 126.56 548.886 123.68C545.558 120.736 543.894 115.968 543.894 109.376V88.064H537.366V74.432H543.894V61.376H560.31V74.432H571.062V88.064H560.31V109.568C560.31 111.168 560.694 112.32 561.462 113.024C562.23 113.728 563.51 114.08 565.302 114.08H571.158ZM601.806 128.768C596.558 128.768 591.822 127.648 587.598 125.408C583.438 123.168 580.142 119.968 577.71 115.808C575.342 111.648 574.158 106.784 574.158 101.216C574.158 95.712 575.374 90.88 577.806 86.72C580.238 82.496 583.566 79.264 587.79 77.024C592.014 74.784 596.75 73.664 601.998 73.664C607.246 73.664 611.982 74.784 616.206 77.024C620.43 79.264 623.758 82.496 626.19 86.72C628.622 90.88 629.838 95.712 629.838 101.216C629.838 106.72 628.59 111.584 626.094 115.808C623.662 119.968 620.302 123.168 616.014 125.408C611.79 127.648 607.054 128.768 601.806 128.768ZM601.806 114.56C604.942 114.56 607.598 113.408 609.774 111.104C612.014 108.8 613.134 105.504 613.134 101.216C613.134 96.928 612.046 93.632 609.87 91.328C607.758 89.024 605.134 87.872 601.998 87.872C598.798 87.872 596.142 89.024 594.03 91.328C591.918 93.568 590.862 96.864 590.862 101.216C590.862 105.504 591.886 108.8 593.934 111.104C596.046 113.408 598.67 114.56 601.806 114.56ZM668.307 73.856C674.579 73.856 679.571 75.904 683.283 80C687.059 84.032 688.947 89.6 688.947 96.704V128H672.627V98.912C672.627 95.328 671.699 92.544 669.843 90.56C667.987 88.576 665.491 87.584 662.355 87.584C659.219 87.584 656.723 88.576 654.867 90.56C653.011 92.544 652.083 95.328 652.083 98.912V128H635.667V74.432H652.083V81.536C653.747 79.168 655.987 77.312 658.803 75.968C661.619 74.56 664.787 73.856 668.307 73.856ZM747.97 100.352C747.97 101.888 747.874 103.488 747.682 105.152H710.53C710.786 108.48 711.842 111.04 713.698 112.832C715.618 114.56 717.954 115.424 720.706 115.424C724.802 115.424 727.65 113.696 729.25 110.24H746.722C745.826 113.76 744.194 116.928 741.826 119.744C739.522 122.56 736.61 124.768 733.09 126.368C729.57 127.968 725.634 128.768 721.282 128.768C716.034 128.768 711.362 127.648 707.266 125.408C703.17 123.168 699.97 119.968 697.666 115.808C695.362 111.648 694.21 106.784 694.21 101.216C694.21 95.648 695.33 90.784 697.57 86.624C699.874 82.464 703.074 79.264 707.17 77.024C711.266 74.784 715.97 73.664 721.282 73.664C726.466 73.664 731.074 74.752 735.106 76.928C739.138 79.104 742.274 82.208 744.514 86.24C746.818 90.272 747.97 94.976 747.97 100.352ZM731.17 96.032C731.17 93.216 730.21 90.976 728.29 89.312C726.37 87.648 723.97 86.816 721.09 86.816C718.338 86.816 716.002 87.616 714.082 89.216C712.226 90.816 711.074 93.088 710.626 96.032H731.17Z" fill="#484848"/>
<defs>
<linearGradient id="paint0_linear_725_2267" x1="103" y1="16" x2="29.0497" y2="165.025" gradientUnits="userSpaceOnUse">
<stop stop-color="#4375D6"/>
<stop offset="0.498383" stop-color="#C15BAD"/>
<stop offset="1" stop-color="#E58B76"/>
</linearGradient>
<linearGradient id="paint1_linear_725_2267" x1="128" y1="16" x2="54.0497" y2="165.025" gradientUnits="userSpaceOnUse">
<stop stop-color="#4375D6"/>
<stop offset="0.498383" stop-color="#C15BAD"/>
<stop offset="1" stop-color="#E58B76"/>
</linearGradient>
<linearGradient id="paint2_linear_725_2267" x1="153" y1="16" x2="79.0497" y2="165.025" gradientUnits="userSpaceOnUse">
<stop stop-color="#4375D6"/>
<stop offset="0.498383" stop-color="#C15BAD"/>
<stop offset="1" stop-color="#E58B76"/>
</linearGradient>
</defs>
</svg>
