<svg width="751" height="188" viewBox="0 0 751 188" fill="none" xmlns="http://www.w3.org/2000/svg">
<path fill-rule="evenodd" clip-rule="evenodd" d="M117.703 22.9977C133.037 33.0715 137.308 53.6174 127.241 68.8882L70.2096 155.4C60.1425 170.671 39.5502 174.884 24.2153 164.81C8.88034 154.736 4.60989 134.19 14.6769 118.919L71.7082 32.4079C81.7753 17.137 102.368 12.924 117.703 22.9977Z" fill="url(#paint0_linear_718_2403)"/>
<path fill-rule="evenodd" clip-rule="evenodd" d="M142.703 22.9977C158.037 33.0715 162.308 53.6174 152.241 68.8882L95.2096 155.4C85.1425 170.671 64.5502 174.884 49.2153 164.81C33.8803 154.736 29.6099 134.19 39.6769 118.919L96.7082 32.4079C106.775 17.137 127.368 12.924 142.703 22.9977Z" fill="url(#paint1_linear_718_2403)" fill-opacity="0.3"/>
<path fill-rule="evenodd" clip-rule="evenodd" d="M167.703 22.9977C183.037 33.0715 187.308 53.6174 177.241 68.8882L120.21 155.4C110.143 170.671 89.5502 174.884 74.2153 164.81C58.8803 154.736 54.6099 134.19 64.6769 118.919L121.708 32.4079C131.775 17.137 152.368 12.924 167.703 22.9977Z" fill="url(#paint2_linear_718_2403)" fill-opacity="0.3"/>
<path d="M243.118 60.608C250.222 60.608 256.43 62.016 261.742 64.832C267.054 67.648 271.15 71.616 274.03 76.736C276.974 81.792 278.446 87.648 278.446 94.304C278.446 100.896 276.974 106.752 274.03 111.872C271.15 116.992 267.022 120.96 261.646 123.776C256.334 126.592 250.158 128 243.118 128H217.87V60.608H243.118ZM242.062 113.792C248.27 113.792 253.102 112.096 256.558 108.704C260.014 105.312 261.742 100.512 261.742 94.304C261.742 88.096 260.014 83.264 256.558 79.808C253.102 76.352 248.27 74.624 242.062 74.624H234.286V113.792H242.062ZM301.156 83.36C303.076 80.416 305.476 78.112 308.356 76.448C311.236 74.72 314.436 73.856 317.956 73.856V91.232H313.444C309.348 91.232 306.276 92.128 304.228 93.92C302.18 95.648 301.156 98.72 301.156 103.136V128H284.74V74.432H301.156V83.36ZM373.418 100.352C373.418 101.888 373.322 103.488 373.13 105.152H335.978C336.234 108.48 337.29 111.04 339.146 112.832C341.066 114.56 343.402 115.424 346.154 115.424C350.25 115.424 353.098 113.696 354.698 110.24H372.17C371.274 113.76 369.642 116.928 367.274 119.744C364.97 122.56 362.058 124.768 358.538 126.368C355.018 127.968 351.082 128.768 346.73 128.768C341.482 128.768 336.81 127.648 332.714 125.408C328.618 123.168 325.418 119.968 323.114 115.808C320.81 111.648 319.658 106.784 319.658 101.216C319.658 95.648 320.778 90.784 323.018 86.624C325.322 82.464 328.522 79.264 332.618 77.024C336.714 74.784 341.418 73.664 346.73 73.664C351.914 73.664 356.522 74.752 360.554 76.928C364.586 79.104 367.722 82.208 369.962 86.24C372.266 90.272 373.418 94.976 373.418 100.352ZM356.618 96.032C356.618 93.216 355.658 90.976 353.738 89.312C351.818 87.648 349.418 86.816 346.538 86.816C343.786 86.816 341.45 87.616 339.53 89.216C337.674 90.816 336.522 93.088 336.074 96.032H356.618ZM375.935 101.12C375.935 95.616 376.959 90.784 379.007 86.624C381.119 82.464 383.967 79.264 387.551 77.024C391.135 74.784 395.135 73.664 399.551 73.664C403.327 73.664 406.623 74.432 409.439 75.968C412.319 77.504 414.527 79.52 416.063 82.016V74.432H432.479V128H416.063V120.416C414.463 122.912 412.223 124.928 409.343 126.464C406.527 128 403.231 128.768 399.455 128.768C395.103 128.768 391.135 127.648 387.551 125.408C383.967 123.104 381.119 119.872 379.007 115.712C376.959 111.488 375.935 106.624 375.935 101.12ZM416.063 101.216C416.063 97.12 414.911 93.888 412.607 91.52C410.367 89.152 407.615 87.968 404.351 87.968C401.087 87.968 398.303 89.152 395.999 91.52C393.759 93.824 392.639 97.024 392.639 101.12C392.639 105.216 393.759 108.48 395.999 110.912C398.303 113.28 401.087 114.464 404.351 114.464C407.615 114.464 410.367 113.28 412.607 110.912C414.911 108.544 416.063 105.312 416.063 101.216ZM509.827 73.856C516.483 73.856 521.763 75.872 525.667 79.904C529.635 83.936 531.619 89.536 531.619 96.704V128H515.299V98.912C515.299 95.456 514.371 92.8 512.515 90.944C510.723 89.024 508.227 88.064 505.027 88.064C501.827 88.064 499.299 89.024 497.443 90.944C495.651 92.8 494.755 95.456 494.755 98.912V128H478.435V98.912C478.435 95.456 477.507 92.8 475.651 90.944C473.859 89.024 471.363 88.064 468.163 88.064C464.963 88.064 462.435 89.024 460.579 90.944C458.787 92.8 457.891 95.456 457.891 98.912V128H441.475V74.432H457.891V81.152C459.555 78.912 461.731 77.152 464.419 75.872C467.107 74.528 470.147 73.856 473.539 73.856C477.571 73.856 481.155 74.72 484.291 76.448C487.491 78.176 489.987 80.64 491.779 83.84C493.635 80.896 496.163 78.496 499.363 76.64C502.563 74.784 506.051 73.856 509.827 73.856ZM570.076 114.08V128H561.724C555.772 128 551.132 126.56 547.804 123.68C544.476 120.736 542.812 115.968 542.812 109.376V88.064H536.284V74.432H542.812V61.376H559.228V74.432H569.98V88.064H559.228V109.568C559.228 111.168 559.612 112.32 560.38 113.024C561.148 113.728 562.428 114.08 564.22 114.08H570.076ZM600.724 128.768C595.476 128.768 590.74 127.648 586.516 125.408C582.356 123.168 579.06 119.968 576.628 115.808C574.26 111.648 573.076 106.784 573.076 101.216C573.076 95.712 574.292 90.88 576.724 86.72C579.156 82.496 582.484 79.264 586.708 77.024C590.932 74.784 595.668 73.664 600.916 73.664C606.164 73.664 610.9 74.784 615.124 77.024C619.348 79.264 622.676 82.496 625.108 86.72C627.54 90.88 628.756 95.712 628.756 101.216C628.756 106.72 627.508 111.584 625.012 115.808C622.58 119.968 619.22 123.168 614.932 125.408C610.708 127.648 605.972 128.768 600.724 128.768ZM600.724 114.56C603.86 114.56 606.516 113.408 608.692 111.104C610.932 108.8 612.052 105.504 612.052 101.216C612.052 96.928 610.964 93.632 608.788 91.328C606.676 89.024 604.052 87.872 600.916 87.872C597.716 87.872 595.06 89.024 592.948 91.328C590.836 93.568 589.78 96.864 589.78 101.216C589.78 105.504 590.804 108.8 592.852 111.104C594.964 113.408 597.588 114.56 600.724 114.56ZM667.225 73.856C673.497 73.856 678.489 75.904 682.201 80C685.977 84.032 687.865 89.6 687.865 96.704V128H671.545V98.912C671.545 95.328 670.617 92.544 668.761 90.56C666.905 88.576 664.409 87.584 661.273 87.584C658.137 87.584 655.641 88.576 653.785 90.56C651.929 92.544 651.001 95.328 651.001 98.912V128H634.585V74.432H651.001V81.536C652.665 79.168 654.905 77.312 657.721 75.968C660.537 74.56 663.705 73.856 667.225 73.856ZM746.888 100.352C746.888 101.888 746.792 103.488 746.6 105.152H709.448C709.704 108.48 710.76 111.04 712.616 112.832C714.536 114.56 716.872 115.424 719.624 115.424C723.72 115.424 726.568 113.696 728.168 110.24H745.64C744.744 113.76 743.112 116.928 740.744 119.744C738.44 122.56 735.528 124.768 732.008 126.368C728.488 127.968 724.552 128.768 720.2 128.768C714.952 128.768 710.28 127.648 706.184 125.408C702.088 123.168 698.888 119.968 696.584 115.808C694.28 111.648 693.128 106.784 693.128 101.216C693.128 95.648 694.248 90.784 696.488 86.624C698.792 82.464 701.992 79.264 706.088 77.024C710.184 74.784 714.888 73.664 720.2 73.664C725.384 73.664 729.992 74.752 734.024 76.928C738.056 79.104 741.192 82.208 743.432 86.24C745.736 90.272 746.888 94.976 746.888 100.352ZM730.088 96.032C730.088 93.216 729.128 90.976 727.208 89.312C725.288 87.648 722.888 86.816 720.008 86.816C717.256 86.816 714.92 87.616 713 89.216C711.144 90.816 709.992 93.088 709.544 96.032H730.088Z" fill="white"/>
<defs>
<linearGradient id="paint0_linear_718_2403" x1="103" y1="16" x2="29.0497" y2="165.025" gradientUnits="userSpaceOnUse">
<stop stop-color="#4375D6"/>
<stop offset="0.498383" stop-color="#C15BAD"/>
<stop offset="1" stop-color="#E58B76"/>
</linearGradient>
<linearGradient id="paint1_linear_718_2403" x1="128" y1="16" x2="54.0497" y2="165.025" gradientUnits="userSpaceOnUse">
<stop stop-color="#4375D6"/>
<stop offset="0.498383" stop-color="#C15BAD"/>
<stop offset="1" stop-color="#E58B76"/>
</linearGradient>
<linearGradient id="paint2_linear_718_2403" x1="153" y1="16" x2="79.0497" y2="165.025" gradientUnits="userSpaceOnUse">
<stop stop-color="#4375D6"/>
<stop offset="0.498383" stop-color="#C15BAD"/>
<stop offset="1" stop-color="#E58B76"/>
</linearGradient>
</defs>
</svg>
