<svg width="21" height="15" viewBox="0 0 21 15" fill="none" xmlns="http://www.w3.org/2000/svg">
<g clip-path="url(#clip0_107_667)">
<path d="M17.9112 0.915527H2.89798C1.52723 0.915527 0.416016 2.02674 0.416016 3.39749V11.6185C0.416016 12.9892 1.52723 14.1005 2.89798 14.1005H17.9112C19.282 14.1005 20.3932 12.9892 20.3932 11.6185V3.39749C20.3932 2.02674 19.282 0.915527 17.9112 0.915527Z" fill="white" stroke="#4C241D" stroke-width="0.799087" stroke-linecap="round" stroke-linejoin="round"/>
<path d="M2.89798 0.915527H6.80871V14.1005H2.89798C2.57204 14.1005 2.2493 14.0363 1.94817 13.9115C1.64705 13.7868 1.37344 13.604 1.14297 13.3735C0.912494 13.143 0.729674 12.8694 0.604944 12.5683C0.480214 12.2672 0.416016 11.9444 0.416016 11.6185V3.39749C0.416016 2.73923 0.677507 2.10794 1.14297 1.64248C1.60842 1.17702 2.23972 0.915527 2.89798 0.915527Z" fill="#9DC1E4" stroke="#4C241D" stroke-width="0.799087" stroke-linecap="round" stroke-linejoin="round"/>
<path d="M14 0.915527H17.9107C18.569 0.915527 19.2003 1.17702 19.6657 1.64248C20.1312 2.10794 20.3927 2.73923 20.3927 3.39749V11.6185C20.3927 11.9444 20.3285 12.2672 20.2038 12.5683C20.079 12.8694 19.8962 13.143 19.6657 13.3735C19.4353 13.604 19.1617 13.7868 18.8605 13.9115C18.5594 14.0363 18.2367 14.1005 17.9107 14.1005H14V0.915527Z" fill="#F53E28" stroke="#4C241D" stroke-width="0.799087" stroke-linecap="round" stroke-linejoin="round"/>
</g>
<defs>
<clipPath id="clip0_107_667">
<rect width="20.8082" height="14" fill="white" transform="translate(0 0.5)"/>
</clipPath>
</defs>
</svg>
